<svg width="16" height="22" viewBox="0 0 16 22" fill="none" xmlns="http://www.w3.org/2000/svg">
<path d="M13.0503 0C14.5536 0 15.7776 1.2342 15.7776 2.75V19.25C15.7776 20.7658 14.5536 22 13.0503 22H3.50486C2.00159 22 0.777588 20.7658 0.777588 19.25V2.75C0.777588 1.2342 2.00159 0 3.50486 0H13.0503ZM6.23213 19.25C6.23213 19.6284 6.53977 19.9386 6.91504 19.9386H9.64232C10.0176 19.9386 10.3252 19.6284 10.3252 19.25C10.3252 18.8716 10.0176 18.5614 9.64232 18.5614H6.91504C6.53977 18.5636 6.23213 18.8716 6.23213 19.25Z" fill="white"/>
</svg>
