<svg width="21" height="20" viewBox="0 0 21 20" fill="none" xmlns="http://www.w3.org/2000/svg">
<path d="M10.7786 0C12.579 0 14.2472 0.450088 15.7791 1.35026C17.3111 2.25044 18.5271 3.46857 19.4273 5.00052C20.3275 6.53247 20.7776 8.19862 20.7776 10.001C20.7776 11.8034 20.3275 13.4696 19.4273 15.0015C18.5271 16.5335 17.3111 17.7496 15.7791 18.6497C14.2472 19.5499 12.579 20 10.7786 20C8.97827 20 7.31005 19.5499 5.7781 18.6497C4.24615 17.7496 3.03009 16.5335 2.12785 15.0015C1.22561 13.4696 0.777588 11.8014 0.777588 10.001C0.777588 8.20068 1.22768 6.53247 2.12785 5.00052C3.02803 3.46857 4.24615 2.25044 5.7781 1.35026C7.31005 0.450088 8.9762 0 10.7786 0ZM10.7786 18.0654C12.23 18.0654 13.5741 17.7021 14.8108 16.9774C16.0475 16.2527 17.0282 15.2699 17.755 14.0332C18.4817 12.7965 18.843 11.4525 18.843 10.001C18.843 8.5496 18.4797 7.20553 17.755 5.96882C17.0303 4.73212 16.0475 3.75142 14.8108 3.02467C13.5741 2.29792 12.23 1.93662 10.7786 1.93662C9.32719 1.93662 7.98312 2.29999 6.74641 3.02467C5.5097 3.74935 4.52901 4.73212 3.80226 5.96882C3.07551 7.20553 2.7142 8.5496 2.7142 10.001C2.7142 11.4525 3.07758 12.7965 3.80226 14.0332C4.52694 15.2699 5.5097 16.2506 6.74641 16.9774C7.98312 17.7041 9.32719 18.0654 10.7786 18.0654ZM13.2789 13.8722C13.3862 13.9527 13.5081 13.9796 13.6423 13.9527C13.7765 13.9259 13.8838 13.8577 13.9643 13.7504L14.6911 12.7016C14.7716 12.5942 14.8046 12.4724 14.7922 12.3382C14.7799 12.204 14.7179 12.0966 14.6106 12.0161L11.908 10.0795V4.35429C11.908 4.22009 11.8605 4.10447 11.7676 4.01156C11.6747 3.91865 11.559 3.87117 11.4248 3.87117H10.1345C10.0003 3.87117 9.8867 3.91865 9.79173 4.01156C9.69676 4.10447 9.65134 4.22009 9.65134 4.35429V10.9673C9.65134 11.1283 9.71947 11.2625 9.85367 11.3699L13.2789 13.8722Z" fill="white"/>
</svg>
