<svg width="21" height="20" viewBox="0 0 21 20" fill="none" xmlns="http://www.w3.org/2000/svg">
<path d="M7.05559 6.292C7.45359 6.264 7.86359 6.25 8.27759 6.25C10.7076 6.25 12.8636 6.73 14.2356 7.476C15.2036 8.004 15.7776 8.66 15.7776 9.376C15.7776 9.532 15.7496 9.684 15.6956 9.834C15.5156 10.35 15.0316 10.822 14.3276 11.22C14.3236 11.224 14.3156 11.224 14.3116 11.228C14.2996 11.236 14.2876 11.24 14.2756 11.248C12.9076 12.006 10.7296 12.498 8.27559 12.498C5.94759 12.498 3.86559 12.056 2.48559 11.362C2.41159 11.326 2.34159 11.288 2.27159 11.248C1.33559 10.726 0.777588 10.078 0.777588 9.376C0.777588 8.016 2.86359 6.856 5.77759 6.43C6.18759 6.372 6.61359 6.324 7.05559 6.292ZM15.7776 13.126C15.7776 13.83 15.2196 14.478 14.2776 15.002C14.2076 15.042 14.1376 15.076 14.0636 15.116C12.6876 15.812 10.6056 16.252 8.27759 16.252C5.82359 16.252 3.64559 15.76 2.27759 15.002C1.33559 14.476 0.777588 13.828 0.777588 13.126V11.744C1.26559 12.146 1.85559 12.474 2.49159 12.74C4.03359 13.384 6.08159 13.752 8.27759 13.752C10.4736 13.752 12.5196 13.384 14.0636 12.74C14.3676 12.614 14.6616 12.47 14.9396 12.314C15.1776 12.182 15.3996 12.032 15.6116 11.876C15.6696 11.834 15.7256 11.786 15.7796 11.744V11.876V12.098V13.126H15.7776ZM8.27759 17.5C10.4736 17.5 12.5196 17.132 14.0636 16.488C14.6996 16.222 15.2936 15.894 15.7776 15.492V16.874C15.7776 18.602 12.4176 20 8.27759 20C4.13759 20 0.777588 18.602 0.777588 16.876V15.494C1.26559 15.896 1.85559 16.224 2.49159 16.49C4.03559 17.132 6.08159 17.5 8.27759 17.5ZM20.7776 3.126C20.7776 3.83 20.2196 4.478 19.2776 5.002C18.1416 5.63 16.4456 6.076 14.4996 6.21C14.3556 6.14 14.2096 6.074 14.0576 6.014C12.5196 5.368 10.4736 5 8.27759 5C7.95359 5 7.63759 5.008 7.31959 5.024L7.27759 5C6.33559 4.476 5.77759 3.828 5.77759 3.124C5.77759 1.398 9.13759 0 13.2776 0C17.4176 0 20.7776 1.398 20.7776 3.126ZM17.0276 9.376C17.0276 8.52 16.6136 7.818 16.0856 7.29C17.1916 7.118 18.2036 6.844 19.0616 6.49C19.6976 6.224 20.2916 5.896 20.7756 5.494V6.876C20.7756 7.63 20.1316 8.326 19.0656 8.864C18.4956 9.154 17.7996 9.4 17.0196 9.586C17.0236 9.516 17.0276 9.45 17.0276 9.378V9.376ZM17.0276 13.126V11.876V10.864C17.7696 10.7 18.4536 10.492 19.0636 10.238C19.6996 9.972 20.2936 9.644 20.7776 9.242V10.624C20.7776 11.034 20.5816 11.444 20.1956 11.832C19.5596 12.468 18.4376 12.992 17.0196 13.332C17.0236 13.266 17.0276 13.196 17.0276 13.126Z" fill="white"/>
</svg>
