<svg width="18" height="25" viewBox="0 0 18 25" fill="none" xmlns="http://www.w3.org/2000/svg">
<mask id="path-1-outside-1_4118_90" maskUnits="userSpaceOnUse" x="-0.222412" y="0" width="18" height="25" fill="black">
<rect fill="white" x="-0.222412" width="18" height="25"/>
<path d="M6.28735 15.8955H2.71313L1.96606 1.58398H7.03442L6.28735 15.8955ZM1.90747 20.9053C1.90747 20.085 2.1272 19.4648 2.56665 19.0449C3.0061 18.625 3.64575 18.415 4.4856 18.415C5.29614 18.415 5.92114 18.6299 6.3606 19.0596C6.80981 19.4893 7.03442 20.1045 7.03442 20.9053C7.03442 21.6768 6.80981 22.2871 6.3606 22.7363C5.91138 23.1758 5.28638 23.3955 4.4856 23.3955C3.66528 23.3955 3.03052 23.1807 2.5813 22.751C2.13208 22.3115 1.90747 21.6963 1.90747 20.9053ZM14.8713 15.8955H11.2971L10.55 1.58398H15.6184L14.8713 15.8955ZM10.4915 20.9053C10.4915 20.085 10.7112 19.4648 11.1506 19.0449C11.5901 18.625 12.2297 18.415 13.0696 18.415C13.8801 18.415 14.5051 18.6299 14.9446 19.0596C15.3938 19.4893 15.6184 20.1045 15.6184 20.9053C15.6184 21.6768 15.3938 22.2871 14.9446 22.7363C14.4954 23.1758 13.8704 23.3955 13.0696 23.3955C12.2493 23.3955 11.6145 23.1807 11.1653 22.751C10.7161 22.3115 10.4915 21.6963 10.4915 20.9053Z"/>
</mask>
<path d="M6.28735 15.8955V17.3955C7.08539 17.3955 7.74371 16.7707 7.78531 15.9737L6.28735 15.8955ZM2.71313 15.8955L1.21517 15.9737C1.25678 16.7707 1.9151 17.3955 2.71313 17.3955V15.8955ZM1.96606 1.58398V0.0839844C1.55467 0.0839844 1.16133 0.252953 0.87811 0.55134C0.594892 0.849728 0.446658 1.25134 0.468104 1.66218L1.96606 1.58398ZM7.03442 1.58398L8.53238 1.66218C8.55383 1.25134 8.4056 0.849728 8.12238 0.55134C7.83916 0.252953 7.44582 0.0839844 7.03442 0.0839844V1.58398ZM6.3606 19.0596L5.31192 20.1321C5.31585 20.1359 5.31979 20.1397 5.32376 20.1435L6.3606 19.0596ZM6.3606 22.7363L7.40954 23.8086C7.41346 23.8047 7.41737 23.8009 7.42126 23.797L6.3606 22.7363ZM2.5813 22.751L1.53236 23.8232C1.53637 23.8272 1.54041 23.8311 1.54446 23.8349L2.5813 22.751ZM6.28735 14.3955H2.71313V17.3955H6.28735V14.3955ZM4.2111 15.8173L3.46403 1.50579L0.468104 1.66218L1.21517 15.9737L4.2111 15.8173ZM1.96606 3.08398H7.03442V0.0839844H1.96606V3.08398ZM5.53646 1.50579L4.78939 15.8173L7.78531 15.9737L8.53238 1.66218L5.53646 1.50579ZM3.40747 20.9053C3.40747 20.3462 3.55208 20.178 3.60294 20.1294L1.53036 17.9604C0.702312 18.7517 0.407471 19.8237 0.407471 20.9053H3.40747ZM3.60294 20.1294C3.67139 20.064 3.88253 19.915 4.4856 19.915V16.915C3.40897 16.915 2.34082 17.186 1.53036 17.9604L3.60294 20.1294ZM4.4856 19.915C5.03331 19.915 5.23322 20.0551 5.31192 20.1321L7.40927 17.9871C6.60907 17.2046 5.55898 16.915 4.4856 16.915V19.915ZM5.32376 20.1435C5.398 20.2145 5.53442 20.3896 5.53442 20.9053H8.53442C8.53442 19.8193 8.22163 18.764 7.39743 17.9756L5.32376 20.1435ZM5.53442 20.9053C5.53442 21.3699 5.40948 21.5661 5.29994 21.6757L7.42126 23.797C8.21015 23.0081 8.53442 21.9836 8.53442 20.9053H5.53442ZM5.31165 21.6641C5.214 21.7596 5.00675 21.8955 4.4856 21.8955V24.8955C5.56601 24.8955 6.60875 24.592 7.40954 23.8086L5.31165 21.6641ZM4.4856 21.8955C3.92442 21.8955 3.70815 21.7531 3.61813 21.667L1.54446 23.8349C2.35288 24.6082 3.40615 24.8955 4.4856 24.8955V21.8955ZM3.63024 21.6787C3.53986 21.5903 3.40747 21.4032 3.40747 20.9053H0.407471C0.407471 21.9894 0.724298 23.0327 1.53236 23.8232L3.63024 21.6787ZM14.8713 15.8955V17.3955C15.6694 17.3955 16.3277 16.7707 16.3693 15.9737L14.8713 15.8955ZM11.2971 15.8955L9.79916 15.9737C9.84076 16.7707 10.4991 17.3955 11.2971 17.3955V15.8955ZM10.55 1.58398V0.0839844C10.1387 0.0839844 9.74531 0.252953 9.46209 0.55134C9.17888 0.849728 9.03064 1.25134 9.05209 1.66218L10.55 1.58398ZM15.6184 1.58398L17.1164 1.66218C17.1378 1.25134 16.9896 0.849728 16.7064 0.55134C16.4231 0.252953 16.0298 0.0839844 15.6184 0.0839844V1.58398ZM14.9446 19.0596L13.8959 20.1321C13.8998 20.1359 13.9038 20.1397 13.9077 20.1435L14.9446 19.0596ZM14.9446 22.7363L15.9935 23.8086C15.9974 23.8047 16.0014 23.8009 16.0052 23.797L14.9446 22.7363ZM11.1653 22.751L10.1163 23.8232C10.1204 23.8272 10.1244 23.8311 10.1284 23.8349L11.1653 22.751ZM14.8713 14.3955H11.2971V17.3955H14.8713V14.3955ZM12.7951 15.8173L12.048 1.50579L9.05209 1.66218L9.79916 15.9737L12.7951 15.8173ZM10.55 3.08398H15.6184V0.0839844H10.55V3.08398ZM14.1204 1.50579L13.3734 15.8173L16.3693 15.9737L17.1164 1.66218L14.1204 1.50579ZM11.9915 20.9053C11.9915 20.3462 12.1361 20.178 12.1869 20.1294L10.1143 17.9604C9.2863 18.7517 8.99146 19.8237 8.99146 20.9053H11.9915ZM12.1869 20.1294C12.2554 20.064 12.4665 19.915 13.0696 19.915V16.915C11.993 16.915 10.9248 17.186 10.1143 17.9604L12.1869 20.1294ZM13.0696 19.915C13.6173 19.915 13.8172 20.0551 13.8959 20.1321L15.9933 17.9871C15.1931 17.2046 14.143 16.915 13.0696 16.915V19.915ZM13.9077 20.1435C13.982 20.2145 14.1184 20.3896 14.1184 20.9053H17.1184C17.1184 19.8193 16.8056 18.764 15.9814 17.9756L13.9077 20.1435ZM14.1184 20.9053C14.1184 21.3699 13.9935 21.5661 13.8839 21.6757L16.0052 23.797C16.7941 23.0081 17.1184 21.9836 17.1184 20.9053H14.1184ZM13.8956 21.6641C13.798 21.7596 13.5907 21.8955 13.0696 21.8955V24.8955C14.15 24.8955 15.1927 24.592 15.9935 23.8086L13.8956 21.6641ZM13.0696 21.8955C12.5084 21.8955 12.2921 21.7531 12.2021 21.667L10.1284 23.8349C10.9369 24.6082 11.9901 24.8955 13.0696 24.8955V21.8955ZM12.2142 21.6787C12.1238 21.5903 11.9915 21.4032 11.9915 20.9053H8.99146C8.99146 21.9894 9.30828 23.0327 10.1163 23.8232L12.2142 21.6787Z" fill="white" mask="url(#path-1-outside-1_4118_90)"/>
</svg>
