<svg width="9" height="25" viewBox="0 0 9 25" fill="none" xmlns="http://www.w3.org/2000/svg">
<mask id="path-1-outside-1_4118_84" maskUnits="userSpaceOnUse" x="-0.222412" y="0" width="9" height="25" fill="black">
<rect fill="white" x="-0.222412" width="9" height="25"/>
<path d="M6.07935 15.8955H2.50513L1.75806 1.58398H6.82642L6.07935 15.8955ZM1.69946 20.9053C1.69946 19.9873 1.94849 19.3428 2.44653 18.9717C2.95435 18.6006 3.5647 18.415 4.27759 18.415C4.97095 18.415 5.56665 18.6006 6.0647 18.9717C6.57251 19.3428 6.82642 19.9873 6.82642 20.9053C6.82642 21.7842 6.57251 22.4189 6.0647 22.8096C5.56665 23.2002 4.97095 23.3955 4.27759 23.3955C3.5647 23.3955 2.95435 23.2002 2.44653 22.8096C1.94849 22.4189 1.69946 21.7842 1.69946 20.9053Z"/>
</mask>
<path d="M6.07935 15.8955V17.3955C6.87738 17.3955 7.5357 16.7707 7.57731 15.9737L6.07935 15.8955ZM2.50513 15.8955L1.00717 15.9737C1.04877 16.7707 1.70709 17.3955 2.50513 17.3955V15.8955ZM1.75806 1.58398V0.0839844C1.34666 0.0839844 0.953319 0.252953 0.670102 0.55134C0.386884 0.849728 0.23865 1.25134 0.260096 1.66218L1.75806 1.58398ZM6.82642 1.58398L8.32438 1.66218C8.34582 1.25134 8.19759 0.849728 7.91437 0.55134C7.63115 0.252953 7.23781 0.0839844 6.82642 0.0839844V1.58398ZM6.15259 19.0596L5.10391 20.1321C5.10784 20.1359 5.11179 20.1397 5.11575 20.1435L6.15259 19.0596ZM6.15259 22.7363L7.20153 23.8086C7.20546 23.8047 7.20936 23.8009 7.21325 23.797L6.15259 22.7363ZM2.37329 22.751L1.32435 23.8232C1.32836 23.8272 1.3324 23.8311 1.33646 23.8349L2.37329 22.751ZM6.07935 14.3955H2.50513V17.3955H6.07935V14.3955ZM4.00309 15.8173L3.25602 1.50579L0.260096 1.66218L1.00717 15.9737L4.00309 15.8173ZM1.75806 3.08398H6.82642V0.0839844H1.75806V3.08398ZM5.32846 1.50579L4.58139 15.8173L7.57731 15.9737L8.32438 1.66218L5.32846 1.50579ZM3.19946 20.9053C3.19946 20.3462 3.34407 20.178 3.39493 20.1294L1.32236 17.9604C0.494304 18.7517 0.199463 19.8237 0.199463 20.9053H3.19946ZM3.39493 20.1294C3.46338 20.064 3.67452 19.915 4.27759 19.915V16.915C3.20097 16.915 2.13281 17.186 1.32236 17.9604L3.39493 20.1294ZM4.27759 19.915C4.8253 19.915 5.02521 20.0551 5.10391 20.1321L7.20126 17.9871C6.40106 17.2046 5.35097 16.915 4.27759 16.915V19.915ZM5.11575 20.1435C5.18999 20.2145 5.32642 20.3896 5.32642 20.9053H8.32642C8.32642 19.8193 8.01362 18.764 7.18942 17.9756L5.11575 20.1435ZM5.32642 20.9053C5.32642 21.3699 5.20148 21.5661 5.09193 21.6757L7.21325 23.797C8.00214 23.0081 8.32642 21.9836 8.32642 20.9053H5.32642ZM5.10365 21.6641C5.00599 21.7596 4.79874 21.8955 4.27759 21.8955V24.8955C5.358 24.8955 6.40074 24.592 7.20153 23.8086L5.10365 21.6641ZM4.27759 21.8955C3.71641 21.8955 3.50015 21.7531 3.41013 21.667L1.33646 23.8349C2.14487 24.6082 3.19814 24.8955 4.27759 24.8955V21.8955ZM3.42223 21.6787C3.33185 21.5903 3.19946 21.4032 3.19946 20.9053H0.199463C0.199463 21.9894 0.51629 23.0327 1.32435 23.8232L3.42223 21.6787Z" fill="white" mask="url(#path-1-outside-1_4118_84)"/>
</svg>
