<svg width="24" height="16" viewBox="0 0 24 16" fill="none" xmlns="http://www.w3.org/2000/svg">
<path d="M13.4035 15.9859C10.3734 15.9859 7.34337 15.9915 4.31331 15.9831C2.52779 15.9802 0.896427 14.8366 0.274157 13.1716C0.0947636 12.6951 0.00506692 12.2018 0.00506692 11.6944C0.0022639 9.45202 -0.00614516 7.2096 0.00786994 4.96718C0.019082 2.60984 1.92794 0.689773 4.28808 0.681364C9.21019 0.667349 14.1323 0.670152 19.0544 0.681364C21.2772 0.68697 23.1552 2.5706 23.2673 4.79059C23.3963 7.3077 21.4874 8.96709 19.8645 9.28383C19.5029 9.35391 19.1413 9.38194 18.7741 9.38194C13.8015 9.38194 8.83178 9.38194 3.85922 9.39035C3.63498 9.39035 3.59293 9.32308 3.59854 9.11845C3.61255 8.59149 3.61255 8.06172 3.59854 7.53475C3.59293 7.32452 3.64058 7.26285 3.86202 7.26566C5.90823 7.27407 7.95724 7.27126 10.0034 7.27126C12.969 7.27126 15.9318 7.27407 18.8974 7.26846C20.1223 7.26566 21.1062 6.31263 21.1454 5.10453C21.1875 3.85719 20.2008 2.82287 18.9395 2.80605C18.3396 2.79764 17.737 2.80325 17.1343 2.80325C12.8934 2.80325 8.65519 2.80325 4.41422 2.80325C3.27619 2.80325 2.39324 3.5012 2.1718 4.58037C2.13817 4.74574 2.12976 4.91953 2.12976 5.08771C2.12695 7.24884 2.12415 9.40997 2.12976 11.5711C2.13256 12.7259 2.84453 13.6117 3.9293 13.8163C4.15073 13.8584 4.38058 13.8528 4.60763 13.8528C10.6285 13.8556 16.6466 13.8556 22.6647 13.85C22.8917 13.85 22.9702 13.8892 22.9618 14.1359C22.9422 14.6796 22.945 15.2234 22.9618 15.7672C22.9674 15.9578 22.9057 15.9887 22.732 15.9887C19.6262 15.9831 16.5149 15.9859 13.4035 15.9859Z" fill="#D10010"/>
</svg>
