<svg width="194" height="20" viewBox="0 0 194 20" fill="none" xmlns="http://www.w3.org/2000/svg">
<path d="M14.3796 19.9859C11.3495 19.9859 8.31945 19.9915 5.28938 19.9831C3.50386 19.9802 1.8725 18.8366 1.25023 17.1716C1.07084 16.6951 0.981141 16.2018 0.981141 15.6944C0.978338 13.452 0.969929 11.2096 0.983944 8.96718C0.995156 6.60984 2.90401 4.68977 5.26416 4.68136C10.1863 4.66735 15.1084 4.67015 20.0305 4.68136C22.2533 4.68697 24.1313 6.5706 24.2434 8.79059C24.3723 11.3077 22.4635 12.9671 20.8405 13.2838C20.4789 13.3539 20.1174 13.3819 19.7502 13.3819C14.7776 13.3819 9.80785 13.3819 4.83529 13.3903C4.61105 13.3903 4.56901 13.3231 4.57461 13.1185C4.58863 12.5915 4.58863 12.0617 4.57461 11.5347C4.56901 11.3245 4.61666 11.2629 4.8381 11.2657C6.8843 11.2741 8.93331 11.2713 10.9795 11.2713C13.9451 11.2713 16.9079 11.2741 19.8735 11.2685C21.0984 11.2657 22.0823 10.3126 22.1215 9.10453C22.1636 7.85719 21.1769 6.82287 19.9155 6.80605C19.3157 6.79764 18.713 6.80325 18.1104 6.80325C13.8694 6.80325 9.63126 6.80325 5.39029 6.80325C4.25227 6.80325 3.36931 7.5012 3.14788 8.58037C3.11424 8.74574 3.10583 8.91953 3.10583 9.08771C3.10303 11.2488 3.10022 13.41 3.10583 15.5711C3.10863 16.7259 3.8206 17.6117 4.90537 17.8163C5.12681 17.8584 5.35666 17.8528 5.5837 17.8528C11.6046 17.8556 17.6227 17.8556 23.6408 17.85C23.8678 17.85 23.9463 17.8892 23.9379 18.1359C23.9183 18.6796 23.9211 19.2234 23.9379 19.7672C23.9435 19.9578 23.8818 19.9887 23.708 19.9887C20.6023 19.9831 17.4909 19.9859 14.3796 19.9859Z" fill="#666666"/>
<path d="M65.3132 19.9855C62.2411 19.9855 59.1717 19.9827 56.0996 19.9911C55.8782 19.9911 55.8333 19.9294 55.839 19.722C55.853 19.1698 55.8502 18.6176 55.839 18.0654C55.8362 17.8916 55.8922 17.8496 56.0604 17.8496C57.588 17.8552 59.1157 17.8524 60.6433 17.8524C65.1534 17.8524 69.6606 17.8468 74.1679 17.8552C75.1714 17.8552 75.9142 17.4404 76.3431 16.5406C77.0074 15.1503 76.0011 13.4825 74.465 13.39C74.3193 13.3816 74.1735 13.3816 74.025 13.3816C69.3607 13.3816 64.6993 13.3788 60.0351 13.3816C58.1851 13.3816 56.8116 12.5519 55.9819 10.9205C54.6589 8.32213 56.408 5.08184 59.2923 4.71184C59.5614 4.6754 59.8277 4.6726 60.0939 4.6726C66.0896 4.6698 72.0853 4.6726 78.0809 4.66699C78.3164 4.66699 78.3808 4.72305 78.3724 4.95851C78.3528 5.48547 78.3584 6.01244 78.3724 6.54221C78.378 6.74403 78.3192 6.80009 78.1174 6.80009C76.1272 6.79168 74.1371 6.79448 72.1469 6.79448C68.1582 6.79448 64.1695 6.79729 60.1808 6.79168C59.5165 6.79168 58.9083 6.90661 58.4037 7.37751C57.7254 8.00819 57.4955 8.97243 57.8179 9.83296C58.1458 10.6991 58.9587 11.2653 59.9089 11.2681C62.4261 11.2737 64.946 11.2709 67.4659 11.2709C69.7335 11.2709 71.9984 11.2597 74.266 11.2737C76.0571 11.2821 77.4138 12.1034 78.193 13.6871C79.6983 16.7396 77.3774 19.9743 74.3781 19.9799C71.3565 19.9911 68.3348 19.9855 65.3132 19.9855Z" fill="#666666"/>
<path d="M40.061 6.80616C37.6812 6.80616 35.3014 6.83419 32.9217 6.79494C31.5958 6.77252 30.5391 7.80964 30.5559 9.14668C30.5868 11.3078 30.5587 13.4689 30.5671 15.6273C30.5699 16.7232 31.2931 17.595 32.3527 17.8164C32.5769 17.8641 32.8039 17.8557 33.0338 17.8557C37.7064 17.8557 42.3763 17.8585 47.0461 17.8501C47.2956 17.8501 47.36 17.9145 47.3488 18.1584C47.3292 18.6938 47.3348 19.2291 47.346 19.7673C47.3516 19.9523 47.3012 19.9944 47.119 19.9944C45.0167 19.9888 42.9116 19.9916 40.8066 19.9916C38.1101 19.9916 35.4136 19.9972 32.7171 19.9888C30.9287 19.9803 29.2918 18.8031 28.6891 17.1241C28.5041 16.6139 28.4396 16.0842 28.4368 15.546C28.4368 13.4101 28.4284 11.2742 28.4368 9.13827C28.4453 7.0304 29.7599 5.30654 31.7192 4.81041C32.0275 4.73192 32.3386 4.68707 32.6582 4.68707C37.6055 4.68707 42.5529 4.67866 47.4974 4.69268C49.6781 4.69828 51.5674 6.54547 51.6711 8.72622C51.6767 8.85516 51.6795 8.9841 51.6795 9.11584C51.6795 12.6561 51.6767 16.1991 51.6851 19.7393C51.6851 19.9607 51.6234 20.0056 51.416 20C50.8806 19.9832 50.3424 19.986 49.8071 20C49.6109 20.0056 49.5688 19.9439 49.5688 19.7589C49.5744 16.2327 49.5716 12.7093 49.5744 9.18312C49.5744 8.71781 49.5099 8.27494 49.2493 7.88252C48.7868 7.18456 48.1421 6.81176 47.29 6.81456C44.885 6.80896 42.4716 6.80616 40.061 6.80616Z" fill="#666666"/>
<path d="M92.365 19.986C89.2929 19.986 86.2236 19.9832 83.1515 19.9916C82.9553 19.9916 82.888 19.9579 82.8936 19.7449C82.9105 19.2011 82.9133 18.6545 82.8936 18.1108C82.8852 17.8837 82.9609 17.8501 83.1655 17.8501C86.3105 17.8557 89.4527 17.8557 92.5977 17.8557C95.4904 17.8557 98.3831 17.8529 101.276 17.8557C102.263 17.8557 102.958 17.3988 103.392 16.527C103.51 16.2944 103.572 16.0393 103.572 15.7758C103.577 15.0358 103.572 14.2986 103.577 13.5586C103.58 13.4185 103.532 13.3821 103.398 13.3821C102.879 13.3877 102.358 13.3849 101.839 13.3849C96.8667 13.3849 91.8941 13.3849 86.9216 13.3849C84.9875 13.3849 83.6168 12.4823 82.7815 10.7556C82.5264 10.2287 82.4424 9.65684 82.4396 9.07662C82.4396 7.67791 82.4424 6.282 82.4339 4.8833C82.4311 4.70951 82.4844 4.66746 82.6498 4.67027C83.2188 4.68148 83.7878 4.68148 84.3568 4.67027C84.539 4.66746 84.5642 4.73193 84.5614 4.89171C84.5558 6.24837 84.5586 7.60503 84.5586 8.96169C84.5586 10.3099 85.5117 11.2686 86.8543 11.2686C92.3482 11.2686 97.8393 11.2686 103.33 11.2742C103.541 11.2742 103.58 11.2153 103.577 11.0191C103.572 8.98692 103.574 6.95753 103.569 4.92534C103.569 4.72633 103.611 4.66466 103.818 4.67027C104.37 4.68709 104.923 4.68148 105.475 4.67307C105.621 4.67027 105.685 4.69549 105.685 4.86648C105.679 8.47397 105.696 12.0815 105.674 15.6889C105.66 17.794 104.205 19.5039 102.153 19.9131C101.842 19.9748 101.525 19.986 101.209 19.986C98.2626 19.986 95.3138 19.986 92.365 19.986Z" fill="#666666"/>
<path d="M177.381 19.9858C174.309 19.9858 171.239 19.9886 168.167 19.9858C166.278 19.983 164.568 18.7244 164.008 16.9192C163.876 16.4988 163.817 16.0615 163.817 15.6243C163.811 13.4295 163.809 11.2375 163.817 9.04276C163.825 6.92928 165.289 5.15777 167.357 4.74573C167.57 4.70368 167.792 4.68126 168.01 4.68126C174.284 4.67846 180.554 4.67846 186.827 4.67285C187.02 4.67285 187.077 4.72331 187.074 4.91671C187.06 5.4605 187.057 6.00429 187.074 6.54807C187.079 6.77231 187.004 6.81436 186.799 6.81436C181.885 6.80875 176.969 6.80875 172.052 6.80875C170.777 6.80875 169.499 6.83959 168.226 6.80034C167.01 6.7611 165.933 7.80663 165.947 9.0792C165.973 11.2235 165.984 13.3706 165.945 15.5121C165.922 16.7707 166.934 17.8639 168.285 17.8583C174.427 17.8302 180.571 17.847 186.712 17.847C187.113 17.847 187.065 17.8022 187.068 18.1918C187.071 18.6964 187.057 19.2009 187.074 19.7026C187.079 19.9241 187.02 19.9858 186.793 19.9858C183.654 19.983 180.517 19.9858 177.381 19.9858Z" fill="#666666"/>
<path d="M132.617 9.21935C132.617 8.96708 132.603 8.71761 132.577 8.46534C132.35 6.37709 130.489 4.68406 128.39 4.67846C125.287 4.67285 122.181 4.67846 119.078 4.67846V4.67565C115.925 4.67565 112.774 4.67846 109.621 4.67285C109.427 4.67285 109.36 4.71209 109.36 4.92232C109.365 9.86124 109.365 14.8002 109.36 19.7419C109.36 19.9241 109.393 19.9914 109.598 19.9914C115.854 19.9858 122.111 19.9886 128.364 19.983C128.945 19.983 129.516 19.8764 130.038 19.613C131.672 18.7917 132.588 17.4827 132.608 15.6299C132.636 13.494 132.617 11.3581 132.617 9.21935ZM128.706 17.8162C128.549 17.8499 128.384 17.8499 128.221 17.8499C122.73 17.8527 117.242 17.8499 111.751 17.8555C111.541 17.8555 111.499 17.7882 111.499 17.592C111.504 14.0826 111.504 10.5732 111.499 7.06663C111.499 6.85921 111.557 6.80875 111.759 6.80875C114.545 6.81436 117.332 6.81156 120.115 6.81156C122.837 6.81156 125.556 6.80875 128.277 6.81436C129.34 6.81436 130.217 7.50951 130.447 8.527C130.492 8.72322 130.511 8.92784 130.511 9.12965C130.517 11.2656 130.517 13.4015 130.511 15.5374C130.511 16.6866 129.797 17.5892 128.706 17.8162Z" fill="#666666"/>
<path d="M159.719 8.86545C159.719 8.69447 159.697 8.52629 159.677 8.35811C159.427 6.35114 157.566 4.68895 155.545 4.68334C153.076 4.67494 150.606 4.68054 148.137 4.68054C145.659 4.68054 143.181 4.68054 140.703 4.68054C140.457 4.68054 140.216 4.70577 139.98 4.75622C137.889 5.20751 136.482 6.93417 136.474 9.07568C136.465 11.2452 136.468 13.412 136.474 15.5815C136.474 15.8394 136.488 16.1029 136.538 16.3551C136.953 18.5359 138.708 19.9822 140.925 19.9822C145.659 19.9822 150.396 19.9822 155.13 19.9822C155.422 19.9822 155.714 19.971 156.005 19.9402C157.942 19.7328 159.697 17.8519 159.711 15.9066C159.733 13.5605 159.719 11.2116 159.719 8.86545ZM157.62 15.5759C157.62 16.8793 156.672 17.8463 155.369 17.8463C150.528 17.8519 145.684 17.8519 140.843 17.8463C139.543 17.8463 138.609 16.8933 138.609 15.5899C138.609 13.412 138.626 11.234 138.604 9.05886C138.59 7.7947 139.675 6.78561 140.855 6.80243C143.276 6.83326 145.696 6.81084 148.117 6.81084C150.505 6.81084 152.894 6.84728 155.282 6.79682C156.543 6.7716 157.662 7.82553 157.636 9.16538C157.589 11.3013 157.622 13.4372 157.62 15.5759Z" fill="#666666"/>
<path d="M193.952 2.39378C193.952 3.73643 192.873 4.80157 191.5 4.80157C190.126 4.80157 189.033 3.73643 189.033 2.39378C189.033 1.05113 190.129 0 191.514 0C192.87 0 193.952 1.05113 193.952 2.39378ZM189.644 2.39378C189.644 3.45893 190.446 4.30544 191.514 4.30544C192.551 4.31945 193.338 3.45893 193.338 2.40779C193.338 1.34265 192.551 0.479317 191.486 0.479317C190.448 0.48212 189.644 1.34265 189.644 2.39378ZM191.118 3.63552H190.563V1.24174C190.782 1.21371 191.09 1.16886 191.483 1.16886C191.934 1.16886 192.139 1.24174 192.301 1.35946C192.447 1.46037 192.551 1.63696 192.551 1.86961C192.551 2.16113 192.332 2.35173 192.055 2.43863V2.46666C192.287 2.53954 192.405 2.73014 192.478 3.04969C192.551 3.41408 192.61 3.54582 192.654 3.63271H192.071C191.999 3.54582 191.954 3.3412 191.881 3.04969C191.836 2.80022 191.69 2.68529 191.385 2.68529H191.121L191.118 3.63552ZM191.132 2.29287H191.396C191.701 2.29287 191.951 2.19196 191.951 1.94249C191.951 1.72386 191.791 1.5781 191.441 1.5781C191.295 1.5781 191.191 1.59212 191.135 1.60613L191.132 2.29287Z" fill="#666666"/>
</svg>
