<svg width="23" height="22" viewBox="0 0 23 22" fill="none" xmlns="http://www.w3.org/2000/svg">
<path d="M7.65259 2.74841H14.5276V1.37323C14.5276 0.818754 14.862 0.319287 15.379 0.105859C15.896 -0.10757 16.4834 0.00684536 16.8794 0.402898L19.6294 3.15326C20.1662 3.69014 20.1662 4.56365 19.6294 5.10052L16.8794 7.85089C16.4834 8.24254 15.896 8.36136 15.379 8.14793C14.862 7.9345 14.5276 7.43063 14.5276 6.87616V5.49878H7.65259C5.37559 5.49878 3.52759 7.34482 3.52759 9.62433C3.52759 10.3834 2.91379 10.9995 2.15259 10.9995C1.39139 10.9995 0.777588 10.3834 0.777588 9.62433C0.777588 5.82442 3.85319 2.74841 7.65259 2.74841ZM15.9026 19.2506H9.02759V20.6214C9.02759 21.1803 8.69319 21.6775 8.17619 21.8932C7.65919 22.1088 7.07179 21.9922 6.67579 21.5961L3.92579 18.8458C3.38899 18.3089 3.38899 17.4354 3.92579 16.8985L6.67579 14.1481C7.07179 13.7565 7.65919 13.6377 8.17619 13.8511C8.69319 14.0645 9.02759 14.5684 9.02759 15.1229V16.5002H15.9026C18.1796 16.5002 20.0276 14.652 20.0276 12.3747C20.0276 11.6134 20.6414 10.9995 21.4026 10.9995C22.1638 10.9995 22.7776 11.6134 22.7776 12.3747C22.7776 16.1724 19.702 19.2506 15.9026 19.2506Z" fill="white"/>
</svg>
