<svg width="15" height="23" viewBox="0 0 15 23" fill="none" xmlns="http://www.w3.org/2000/svg">
<path d="M4.09031 16.75C3.68019 15.3794 2.83377 14.2112 1.99389 13.0408C1.77138 12.735 1.55105 12.4314 1.33726 12.1212C0.495201 10.9024 0 9.4152 0 7.8136C0 3.6358 3.35733 0.25 7.5 0.25C11.6427 0.25 15 3.6358 15 7.8158C15 9.4196 14.5048 10.9002 13.6627 12.1256C13.449 12.4358 13.2286 12.7394 13.0061 13.0452C12.164 14.2112 11.3176 15.3794 10.9075 16.75H4.09031ZM7.5 4.375C7.87522 4.375 8.18281 4.0648 8.18281 3.6864C8.18281 3.308 7.87522 2.9978 7.5 2.9978C4.86257 2.9978 2.72688 5.1516 2.72688 7.8114C2.72688 8.1898 3.03447 8.5 3.40969 8.5C3.7849 8.5 4.0925 8.1898 4.0925 7.8114C4.09031 5.9128 5.61518 4.375 7.5 4.375ZM4.09031 18.8136V18.125H10.9075V18.8136C10.9075 20.7122 9.38264 22.25 7.5 22.25C5.61736 22.25 4.09031 20.7122 4.09031 18.8136Z" fill="white"/>
</svg>
