<svg width="22" height="22" viewBox="0 0 22 22" fill="none" xmlns="http://www.w3.org/2000/svg">
<path d="M19.25 19.25C19.25 20.7658 18.0158 22 16.5 22H5.5C3.9842 22 2.75 20.7658 2.75 19.25V16.5H1.375C0.6138 16.5 0 15.8862 0 15.125V11C0 9.4842 1.2342 8.25 2.75 8.25H19.25C20.7658 8.25 22 9.4842 22 11V15.125C22 15.8862 21.3862 16.5 20.625 16.5H19.25V19.25ZM15.2416 0C15.972 0 16.6716 0.2882 17.1886 0.803L18.447 2.0614C18.9618 2.5762 19.25 3.278 19.25 4.0084V6.875H16.5V4.0084L15.2416 2.75H5.5V6.875H2.75V2.75C2.75 1.2342 3.9842 0 5.5 0H15.2416ZM5.5 15.125V15.8136V16.5V19.25H16.5V16.5V15.125H5.5ZM17.5318 11.6886C17.5318 12.2584 17.9938 12.7204 18.5636 12.7204C19.1334 12.7204 19.5954 12.2584 19.5954 11.6886C19.5954 11.1188 19.1334 10.6568 18.5636 10.6568C17.9938 10.6568 17.5318 11.1188 17.5318 11.6886Z" fill="white"/>
</svg>
