<svg width="16" height="17" viewBox="0 0 16 17" fill="none" xmlns="http://www.w3.org/2000/svg">
<path d="M15.5733 0.668274C15.8859 0.887128 16.0422 1.26231 15.9797 1.63748L13.9787 14.6436C13.9475 14.9563 13.7599 15.2064 13.4785 15.3627C13.2284 15.5191 12.8845 15.5503 12.6031 15.4253L8.88258 13.862L6.72531 16.1756C6.44392 16.4883 6.00622 16.5821 5.63104 16.4257C5.25586 16.3007 5.00574 15.9255 5.00574 15.4878V12.8928C5.00574 12.7678 5.03701 12.6427 5.1308 12.5489L10.352 6.82744C10.5396 6.63985 10.5396 6.3272 10.352 6.13962C10.1644 5.95203 9.85179 5.95203 9.6642 6.13962L3.31744 11.7673L0.534875 10.3916C0.222227 10.2353 0.00337295 9.89139 0.00337295 9.51622C-0.0278919 9.1723 0.159697 8.82839 0.50361 8.6408L14.5102 0.637009C14.8229 0.44942 15.2606 0.44942 15.5733 0.668274Z" fill="white"/>
</svg>
