<svg width="24" height="20" viewBox="0 0 24 20" fill="none" xmlns="http://www.w3.org/2000/svg">
<path d="M2.21509 15.7174C1.41929 15.7174 0.777588 15.0799 0.777588 14.2894V4.29321C0.777588 3.50266 1.41929 2.86519 2.21509 2.86519H5.09009C5.88589 2.86519 6.52759 3.50266 6.52759 4.29321V14.2894C6.52759 15.0799 5.88589 15.7174 5.09009 15.7174H2.21509ZM15.3228 19.8758C13.607 20.3625 11.8153 19.3754 11.3254 17.671L11.0701 16.7776C10.9045 16.1972 10.6032 15.6626 10.1938 15.2147L7.88919 12.7014C7.48899 12.265 7.52119 11.5864 7.96049 11.1889C8.39979 10.7913 9.08289 10.8233 9.48309 11.2597L11.7877 13.7776C12.4202 14.4699 12.8848 15.2947 13.1401 16.1927L13.3954 17.086C13.5564 17.6527 14.1544 17.984 14.7294 17.8218C15.3044 17.6595 15.6333 17.0678 15.47 16.4965L15.2147 15.6032C14.9594 14.7144 14.5546 13.8758 14.0187 13.1264C13.7841 12.7997 13.7588 12.3724 13.9428 12.016C14.1268 11.6595 14.4948 11.4356 14.8996 11.4356H20.9026C21.2982 11.4356 21.6225 11.1135 21.6225 10.7205C21.6225 10.4166 21.4293 10.1538 21.1556 10.051C20.8221 9.92535 20.5714 9.64888 20.4863 9.30615C20.4012 8.96343 20.4909 8.60014 20.7255 8.33738C20.8382 8.21172 20.9049 8.04721 20.9049 7.86442C20.9049 7.51712 20.6542 7.22695 20.3207 7.16297C19.9527 7.09214 19.6422 6.83624 19.5111 6.48438C19.38 6.13251 19.4398 5.73952 19.6721 5.44477C19.7664 5.32368 19.8239 5.17288 19.8239 5.0038C19.8239 4.70449 19.6353 4.44173 19.3662 4.33891C18.8487 4.13785 18.5704 3.58491 18.7199 3.05255C18.7383 2.99543 18.7475 2.92688 18.7475 2.86062C18.7475 2.46763 18.4232 2.14546 18.0276 2.14546H13.6484C13.0826 2.14546 12.526 2.30997 12.0545 2.623L9.28299 4.45772C8.78849 4.78902 8.11919 4.65422 7.78799 4.15841C7.45679 3.6626 7.59019 3.00228 8.08929 2.67326L10.8608 0.838536C11.6842 0.290175 12.6548 0 13.6484 0H18.0276C19.587 0 20.8543 1.23153 20.9026 2.76694C21.5581 3.29017 21.9813 4.09215 21.9813 4.99923C21.9813 5.2003 21.9583 5.39222 21.9238 5.57958C22.6161 6.10281 23.06 6.92764 23.06 7.85528C23.06 8.14546 23.014 8.42649 22.9335 8.68925C23.4556 9.21476 23.7776 9.92991 23.7776 10.7205C23.7776 12.2947 22.4919 13.5765 20.9026 13.5765H16.7557C16.9673 14.0403 17.1467 14.5224 17.2847 15.0137L17.54 15.9071C18.0322 17.6093 17.0386 19.3892 15.3228 19.8758Z" fill="white"/>
</svg>
