<svg width="25" height="30" viewBox="0 0 25 30" fill="none" xmlns="http://www.w3.org/2000/svg">
<g filter="url(#filter0_d_4118_167)">
<path d="M7.44354 0H18.1074H19.4446C20.1825 0 20.7776 0.6138 20.7776 1.375C20.7776 2.1362 20.1825 2.75 19.4446 2.75V3.223C19.4446 5.0446 18.7408 6.7936 17.491 8.0828L14.663 11L17.4867 13.9172C18.7365 15.2064 19.4403 16.9554 19.4403 18.777V19.25C20.1783 19.25 20.7733 19.8638 20.7733 20.625C20.7733 21.3862 20.1783 22 19.4403 22H18.1074H7.44354H6.11057C5.37263 22 4.77759 21.3862 4.77759 20.625C4.77759 19.8638 5.37263 19.25 6.11057 19.25V18.777C6.11057 16.9554 6.81438 15.2064 8.06418 13.9172L10.888 11L8.06418 8.0828C6.81438 6.7936 6.11057 5.0446 6.11057 3.223V2.75C5.37263 2.75 4.77759 2.1362 4.77759 1.375C4.77759 0.6138 5.37263 0 6.11057 0H7.44354ZM9.44408 5.5H16.109C16.5419 4.829 16.7765 4.0392 16.7765 3.223V2.75H8.77865V3.223C8.77652 4.0392 9.01326 4.829 9.44408 5.5ZM9.44408 16.5044H16.1132C15.9639 16.2756 15.7976 16.0622 15.6056 15.8642L12.7755 12.947L9.94741 15.8598C9.75973 16.0578 9.58911 16.2734 9.44408 16.5V16.5044Z" fill="white"/>
</g>
<defs>
<filter id="filter0_d_4118_167" x="0.777588" y="0" width="24" height="30" filterUnits="userSpaceOnUse" color-interpolation-filters="sRGB">
<feFlood flood-opacity="0" result="BackgroundImageFix"/>
<feColorMatrix in="SourceAlpha" type="matrix" values="0 0 0 0 0 0 0 0 0 0 0 0 0 0 0 0 0 0 127 0" result="hardAlpha"/>
<feOffset dy="4"/>
<feGaussianBlur stdDeviation="2"/>
<feComposite in2="hardAlpha" operator="out"/>
<feColorMatrix type="matrix" values="0 0 0 0 0 0 0 0 0 0 0 0 0 0 0 0 0 0 0.25 0"/>
<feBlend mode="normal" in2="BackgroundImageFix" result="effect1_dropShadow_4118_167"/>
<feBlend mode="normal" in="SourceGraphic" in2="effect1_dropShadow_4118_167" result="shape"/>
</filter>
</defs>
</svg>
